Coordinates
version=1
nRows=12
nColumns=24
inDegrees=yes

Units are S.I. units (second, meters, Newtons, ...)
Angles are in degrees.

endheader
time	pelvis_tilt	pelvis_list	pelvis_rotation	pelvis_tx	pelvis_ty	pelvis_tz	hip_flexion_r	hip_adduction_r	hip_rotation_r	knee_angle_r	ankle_angle_r	subtalar_angle_r	mtp_angle_r	hip_flexion_l	hip_adduction_l	hip_rotation_l	knee_angle_l	ankle_angle_l	subtalar_angle_l	mtp_angle_l	lumbar_extension	lumbar_bending	lumbar_rotation
      3.81500000	    -10.03682570	      7.32048999	      3.44237930	     -0.67902873	     -0.01493771	      0.68032698	     42.24441710	    -11.89329019	     -4.02366773	    -62.18119439	    -15.32895778	    -14.67648122	     25.17465332	      4.18878515	     12.48143997	     15.11189454	    -15.07341693	     15.89961884	     -9.45477139	    -33.31141551	      7.22341745	     -8.43945609	     -9.83087628
      3.82000000	     -9.99858784	      7.15043589	      3.62350525	     -0.67222146	     -0.01515850	      0.67988666	     42.53861692	    -11.69865727	     -4.00123469	    -60.89327499	    -14.93922951	    -14.50434528	     24.56598833	      3.56155830	     12.24658027	     15.27885575	    -14.81149611	     15.92801982	     -9.22696172	    -32.94353139	      7.07884548	     -8.21496284	    -10.07993466
      3.82500000	     -9.97253888	      6.97938659	      3.79303829	     -0.66545035	     -0.01542501	      0.67945038	     42.80863532	    -11.48945329	     -3.92683630	    -59.51999324	    -14.59288087	    -14.28494024	     24.12257679	      2.96536806	     12.00802029	     15.41113329	    -14.56940133	     15.95521754	     -8.98681884	    -32.60205687	      6.93877772	     -7.98201667	    -10.37517001
      3.83000000	    -10.06976056	      6.85333690	      3.89436824	     -0.65864893	     -0.01590875	      0.67909915	     43.19995674	    -11.26440338	     -3.72954764	    -58.07238557	    -14.32817181	    -14.15562451	     23.94767857	      2.50135968	     11.82291970	     15.53245349	    -14.31996331	     15.98734164	     -8.83974589	    -32.47378181	      6.94695000	     -7.78780298	    -10.52124556
      3.83500000	     -9.89106906	      6.66776022	      4.06504573	     -0.65184420	     -0.01605465	      0.67867280	     43.19068753	    -11.06578426	     -3.69939546	    -56.53446698	    -13.89051187	    -13.84347972	     23.28145141	      1.74972043	     11.53590450	     15.58154251	    -14.08344488	     16.04227076	     -8.43187518	    -32.02512006	      6.63583401	     -7.52768810	    -10.83136393
      3.84000000	     -9.84535531	      6.50031773	      4.15071448	     -0.64497699	     -0.01641683	      0.67836218	     43.31222120	    -10.80986865	     -3.54943803	    -54.93887620	    -13.48394863	    -13.59445314	     22.50662538	      1.14870515	     11.26987827	     15.54672110	    -13.84304343	     16.01979689	     -8.09013258	    -31.44061623	      6.49145439	     -7.27350589	    -10.99606034
      3.84500000	     -9.83167218	      6.36030707	      4.23545402	     -0.63814038	     -0.01685322	      0.67805995	     43.43571651	    -10.58015879	     -3.35895322	    -53.27946029	    -13.13939772	    -13.39194781	     21.80202969	      0.59778540	     11.03238640	     15.46405581	    -13.62222327	     15.96477194	     -7.71868064	    -30.77539293	      6.37306783	     -7.04936551	    -11.17700506
      3.85000000	     -9.82757694	      6.22801233	      4.32211865	     -0.63122499	     -0.01734202	      0.67771506	     43.51335735	    -10.38198074	     -3.20293674	    -51.54187173	    -12.77926190	    -13.27476149	     21.20956994	      0.05846856	     10.80270536	     15.35238350	    -13.41234579	     15.94832344	     -7.30059618	    -30.21646749	      6.27480180	     -6.82311978	    -11.30040242
      3.85500000	     -9.82242649	      6.10747527	      4.38356323	     -0.62431451	     -0.01785538	      0.67741786	     43.55865233	    -10.17728987	     -3.01210684	    -49.75478920	    -12.45819231	    -13.20095293	     20.45123675	     -0.46918389	     10.57890745	     15.17316182	    -13.21636261	     15.90764192	     -6.82441702	    -29.57478606	      6.17322960	     -6.60817311	    -11.44535316
      3.86000000	     -9.93910177	      6.01303226	      4.50693165	     -0.61736182	     -0.01857632	      0.67708403	     43.70188255	    -10.04722337	     -2.84081011	    -47.97933565	    -11.90791858	    -12.93891346	     19.11592232	     -0.84593239	     10.38493690	     14.88957400	    -13.02981582	     15.31170413	     -6.35031851	    -27.07471368	      6.20452653	     -6.44300847	    -11.60240022
      3.86500000	     -9.89926454	      5.88560312	      4.53908078	     -0.61035422	     -0.01909355	      0.67679256	     43.61014409	     -9.84267344	     -2.68287860	    -46.04083196	    -11.74220654	    -13.14221380	     18.83025266	     -1.40148764	     10.14736106	     14.63716634	    -12.85675422	     15.38390863	     -5.78555794	    -26.79828157	      6.07434686	     -6.20357688	    -11.66870862
      3.87000000	     -9.92145405	      5.79937794	      4.55903602	     -0.60330953	     -0.01976957	      0.67661898	     43.58248906	     -9.64350461	     -2.42460392	    -44.16965469	    -11.26185752	    -13.04851549	     17.44763369	     -1.87502404	      9.94025269	     14.23679062	    -12.68789182	     15.09551975	     -5.12366737	    -25.18966471	      6.01646338	     -6.01902062	    -11.71365800
